<svg width="128" height="128" viewBox="0 0 128 128" fill="none" xmlns="http://www.w3.org/2000/svg">
    <path fill-rule="evenodd" clip-rule="evenodd" d="M64 128C99.3462 128 128 99.3462 128 64C128 28.6538 99.3462 0 64 0C28.6538 0 0 28.6538 0 64C0 99.3462 28.6538 128 64 128Z" fill="#BDBDBD"/>
    <path d="M63.9987 72.1122C76.4009 72.1122 86.4548 62.0582 86.4548 49.656C86.4548 37.2538 76.4009 27.1999 63.9987 27.1999C51.5965 27.1999 41.5425 37.2538 41.5425 49.656C41.5425 62.0582 51.5965 72.1122 63.9987 72.1122Z" fill="white"/>
    <path d="M63.5 128.5C80.2237 128.5 95.72 123.481 106.667 111.68C106.613 111.507 106.559 111.333 106.505 111.16C103.106 100.197 99.2711 87.8315 86.0466 87.8314L84.8734 87.8314C82.2892 87.8313 80.0404 87.8313 73.8573 87.8314C63.8512 87.8316 55.0506 87.8315 48.4335 87.8315C45.8176 87.8314 43.543 87.8314 41.67 87.8314C29.3079 87.8314 25.7483 98.4884 22.2689 108.905C21.9585 109.834 21.6487 110.762 21.3333 111.68C32.2571 123.302 46.9201 128.5 63.5 128.5Z" fill="white"/>
</svg>
